<svg xmlns="http://www.w3.org/2000/svg" viewBox="0 0 1200 800" width="1200" height="800" font-family="Segoe UI, Arial, sans-serif">

  <defs>
    <linearGradient id="g0" x1="0%" y1="0%" x2="100%" y2="0%">
      <stop offset="0%" style="stop-color:#1a1a3e"/>
      <stop offset="100%" style="stop-color:#2d1b4e"/>
    </linearGradient>
    <linearGradient id="g1" x1="0%" y1="0%" x2="100%" y2="0%">
      <stop offset="0%" style="stop-color:#3d2550"/>
      <stop offset="100%" style="stop-color:#1a1a6e"/>
    </linearGradient>
    <linearGradient id="g2" x1="0%" y1="0%" x2="100%" y2="0%">
      <stop offset="0%" style="stop-color:#2d3e7e"/>
      <stop offset="100%" style="stop-color:#e74c3c"/>
    </linearGradient>
    <linearGradient id="g3" x1="0%" y1="0%" x2="100%" y2="0%">
      <stop offset="0%" style="stop-color:#f39c12"/>
      <stop offset="100%" style="stop-color:#e74c3c"/>
    </linearGradient>
    <linearGradient id="g4" x1="0%" y1="0%" x2="100%" y2="0%">
      <stop offset="0%" style="stop-color:#27ae60"/>
      <stop offset="100%" style="stop-color:#f39c12"/>
    </linearGradient>
    <linearGradient id="g5" x1="0%" y1="0%" x2="100%" y2="0%">
      <stop offset="0%" style="stop-color:#3498db"/>
      <stop offset="100%" style="stop-color:#27ae60"/>
    </linearGradient>
    <linearGradient id="g6" x1="0%" y1="0%" x2="100%" y2="0%">
      <stop offset="0%" style="stop-color:#9b59b6"/>
      <stop offset="100%" style="stop-color:#3498db"/>
    </linearGradient>
  </defs>

  <rect width="1200" height="800" fill="#0f0f1e"/>
  <text x="600" y="50" text-anchor="middle" fill="#e0e0e0" font-size="28" font-weight="bold">Plugin System: 5 Trust Tiers</text>
  <line x1="100" y1="70" x2="1100" y2="70" stroke="#333" stroke-width="1"/>

  <rect x="60" y="120" width="200" height="90" rx="8" fill="url(#g1)"/>
  <text x="160" y="145" text-anchor="middle" fill="#fff" font-size="12" font-weight="bold">Compliance</text>
  <text x="160" y="165" text-anchor="middle" fill="#ddd" font-size="10">Locked • Mandatory</text>
  <text x="160" y="185" text-anchor="middle" fill="#fff" font-size="9" opacity="0.8">🔒</text>

  <rect x="280" y="120" width="200" height="90" rx="8" fill="url(#g2)"/>
  <text x="380" y="145" text-anchor="middle" fill="#fff" font-size="12" font-weight="bold">Core</text>
  <text x="380" y="165" text-anchor="middle" fill="#ddd" font-size="10">No bypass • Audited</text>
  <text x="380" y="185" text-anchor="middle" fill="#fff" font-size="9" opacity="0.8">🛡️</text>

  <rect x="500" y="120" width="200" height="90" rx="8" fill="url(#g3)"/>
  <text x="600" y="145" text-anchor="middle" fill="#fff" font-size="12" font-weight="bold">Bundled</text>
  <text x="600" y="165" text-anchor="middle" fill="#ddd" font-size="10">In-process • Vetted</text>
  <text x="600" y="185" text-anchor="middle" fill="#fff" font-size="9" opacity="0.8">✓</text>

  <rect x="720" y="120" width="200" height="90" rx="8" fill="url(#g4)"/>
  <text x="820" y="145" text-anchor="middle" fill="#fff" font-size="12" font-weight="bold">Installed</text>
  <text x="820" y="165" text-anchor="middle" fill="#ddd" font-size="10">Marketplace • Signed</text>
  <text x="820" y="185" text-anchor="middle" fill="#fff" font-size="9" opacity="0.8">📦</text>

  <rect x="940" y="120" width="200" height="90" rx="8" fill="url(#g5)"/>
  <text x="1040" y="145" text-anchor="middle" fill="#fff" font-size="12" font-weight="bold">Community</text>
  <text x="1040" y="165" text-anchor="middle" fill="#ddd" font-size="10">Sandboxed • Isolated</text>
  <text x="1040" y="185" text-anchor="middle" fill="#fff" font-size="9" opacity="0.8">🌐</text>

  <rect x="60" y="280" width="1080" height="120" rx="8" fill="url(#g6)"/>
  <text x="600" y="320" text-anchor="middle" fill="#fff" font-size="14" font-weight="bold">Plugin Lifecycle</text>
  <text x="600" y="345" text-anchor="middle" fill="#ddd" font-size="11">Load → Register → Execute → Audit → Disable</text>
  <text x="600" y="365" text-anchor="middle" fill="#fff" font-size="10" opacity="0.8">Zero-downtime upgrades • All actions logged • Versioned configs</text>
</svg>